<?xml version="1.0" encoding="UTF-8"?>
<svg version="1.1" xmlns="http://www.w3.org/2000/svg" width="512" height="512">
<path d="M0 0 C6.19457208 5.22303022 10.54819764 12.95349674 15 19.625 C15.74745415 20.73607606 16.49551232 21.84674598 17.24414062 22.95703125 C18.76781488 25.21761245 20.28908297 27.47978243 21.80859375 29.74316406 C25.01658796 34.51083817 28.25768255 39.25563381 31.5 44 C32.72548441 45.79672224 33.95074222 47.59359906 35.17578125 49.390625 C35.79404785 50.29748047 36.41231445 51.20433594 37.04931641 52.13867188 C37.69304199 53.08291016 38.33676758 54.02714844 39 55 C40.04486572 56.53237305 40.04486572 56.53237305 41.11083984 58.09570312 C44.73102475 63.40649575 48.34577585 68.72080036 51.94921875 74.04296875 C54.50608609 77.81675707 57.08988943 81.56857711 59.70703125 85.30078125 C60.80468776 86.88802065 61.90234403 88.47526022 63 90.0625 C63.49846436 90.75762695 63.99692871 91.45275391 64.51049805 92.16894531 C67.71063293 96.83888628 68.82633318 100.31091443 69 106 C67.49214371 110.20612545 65.85412986 112.7116104 62 115 C58.46173745 116.17942085 55.65851274 116.11289189 51.92578125 116.09765625 C50.90003242 116.09553383 50.90003242 116.09553383 49.8535614 116.09336853 C47.67316278 116.08777876 45.49286749 116.07522822 43.3125 116.0625 C41.83268378 116.05748367 40.35286594 116.052921 38.87304688 116.04882812 C35.24866443 116.03781271 31.6243423 116.02055512 28 116 C28.00113916 116.92972514 28.00113916 116.92972514 28.00230134 117.8782326 C28.0470459 154.60388101 28.08136726 191.3295254 28.10213066 228.05519549 C28.10463211 232.46371761 28.10722075 236.87223968 28.10986328 241.28076172 C28.1103879 242.1584286 28.11091252 243.03609548 28.11145304 243.94035833 C28.12015848 258.15620519 28.13592922 272.3720359 28.15430559 286.58787318 C28.17300077 301.17184118 28.18411592 315.75580072 28.18817699 330.33978021 C28.19092284 339.34072698 28.19959917 348.34162809 28.21583293 357.34256081 C28.22639509 363.51268241 28.22960237 369.68278037 28.22700275 375.85291035 C28.22572027 379.41410359 28.22770282 382.97521695 28.23841095 386.53639603 C28.24993369 390.396659 28.24598028 394.25681764 28.24050903 398.11709595 C28.24924756 399.80678857 28.24924756 399.80678857 28.25816262 401.5306164 C28.2323089 408.25725274 28.13451654 413.47228304 23.625 418.8125 C19.93460468 421.88782943 17.02970072 422.12138831 12.32666016 422.16113281 C11.40535309 422.17074036 10.48404602 422.1803479 9.53482056 422.19024658 C8.5462204 422.19449646 7.55762024 422.19874634 6.5390625 422.203125 C5.51573822 422.20882507 4.49241394 422.21452515 3.43807983 422.22039795 C1.27448558 422.22983723 -0.88912297 422.23637767 -3.05273438 422.24023438 C-6.35572454 422.24994334 -9.65809321 422.28097867 -12.9609375 422.3125 C-15.06510048 422.31903013 -17.1692679 422.32428056 -19.2734375 422.328125 C-20.2579892 422.3404718 -21.24254089 422.3528186 -22.25692749 422.36553955 C-27.60136567 422.3482487 -31.38869458 422.02135902 -36 419 C-39.72494745 415.01815962 -40.12529718 411.20014547 -40.12304783 405.90068436 C-40.12503888 404.86511847 -40.12702993 403.82955258 -40.12908131 402.76260591 C-40.12471205 401.05833833 -40.12471205 401.05833833 -40.12025452 399.31964111 C-40.12110894 398.11157547 -40.12196337 396.90350982 -40.12284368 395.65883613 C-40.12420747 392.30438754 -40.1210766 388.94999711 -40.11606562 385.59555554 C-40.11175162 381.97868682 -40.11320822 378.36181992 -40.1139679 374.74494934 C-40.11449253 368.47805606 -40.11135206 362.21117319 -40.10573006 355.94428253 C-40.09760684 346.88338442 -40.09499899 337.82249134 -40.09374207 328.76158997 C-40.09155284 314.06127197 -40.08489626 299.36095952 -40.07543945 284.66064453 C-40.06626199 270.37972033 -40.05918279 256.09879764 -40.05493164 241.81787109 C-40.05466892 240.93775829 -40.05440619 240.05764549 -40.05413551 239.1508626 C-40.05283048 234.73564413 -40.05156677 230.32042565 -40.05032361 225.90520716 C-40.03995503 189.27013419 -40.02234022 152.63506753 -40 116 C-41.3614917 116.02356567 -41.3614917 116.02356567 -42.75048828 116.04760742 C-46.13873072 116.0989313 -49.52655619 116.13644416 -52.91503906 116.16479492 C-54.37767075 116.17982196 -55.84025782 116.20024955 -57.30273438 116.22631836 C-59.4128728 116.26297267 -61.52241226 116.27978676 -63.6328125 116.29296875 C-64.90012207 116.3086792 -66.16743164 116.32438965 -67.47314453 116.34057617 C-72.03134712 115.90040639 -75.29484445 114.41116321 -78.8125 111.5 C-81.59401884 107.98650252 -81.4738572 104.26471482 -81 100 C-77.41833441 92.87207631 -72.58324969 86.30556695 -68.0625 79.75 C-66.73039284 77.80734372 -65.39836379 75.86463387 -64.06640625 73.921875 C-63.39109863 72.93896484 -62.71579102 71.95605469 -62.02001953 70.94335938 C-58.83548849 66.30319667 -55.66827048 61.65127296 -52.5 57 C-51.25269009 55.17051434 -50.00529402 53.34108741 -48.7578125 51.51171875 C-45.5948606 46.87277758 -42.43267998 42.23331134 -39.27099609 37.59350586 C-38.01686014 35.7539665 -36.76198896 33.91492817 -35.50634766 32.07641602 C-32.43824918 27.58358297 -29.38040019 23.08447259 -26.34375 18.5703125 C-25.46710693 17.27323364 -25.46710693 17.27323364 -24.57275391 15.94995117 C-23.47682304 14.32811847 -22.38504052 12.70347121 -21.29833984 11.07543945 C-15.61106141 2.68210225 -10.70447326 -3.21776466 0 0 Z " fill="#CADEEF" transform="translate(435,55)"/>
<path d="M0 0 C13.05676973 9.82622877 21.29828688 22.99367595 24.609375 38.93359375 C25.97149504 49.6262361 25.38233954 59.7651284 22 70 C21.73316406 70.84949219 21.46632813 71.69898438 21.19140625 72.57421875 C16.13665582 86.88477885 5.15672278 97.91561081 -8 105 C-23.7394223 111.9713423 -41.29187268 113.92909694 -57.86328125 108.3203125 C-74.48646604 101.32325589 -86.83058782 89.60103379 -93.93359375 72.98046875 C-99.80552712 56.56916778 -99.65044832 39.82458981 -92.43701172 23.8762207 C-84.96231278 8.44299401 -73.00615236 -2.45801347 -56.9375 -8.5 C-37.67169097 -14.91204122 -16.50265094 -11.54496999 0 0 Z " fill="#CBDFF0" transform="translate(106,362)"/>
<path d="M0 0 C11.82906576 10.87869638 17.41511624 25.04029927 18.97265625 40.76171875 C19.54211733 57.6853902 14.32062372 73.40536038 3.28515625 86.3515625 C-8.27549886 98.42080819 -23.80510218 105.71861762 -40.54199219 106.38110352 C-58.38220024 106.65171341 -74.46199629 100.37249405 -87.40234375 87.9765625 C-99.26184988 74.77374661 -105.05048817 59.16328749 -104.71484375 41.5 C-103.0677267 22.92875523 -95.04781021 8.3872263 -81.265625 -3.93359375 C-56.24725011 -23.77575314 -23.4416936 -19.74438583 0 0 Z " fill="#D71A5F" transform="translate(112.40234375,52.0234375)"/>
<path d="M0 0 C13.72501777 10.54322352 21.64415148 24.9492292 24.16015625 42 C25.58570885 58.01138952 22.18608596 73.90430363 12.0546875 86.6484375 C9.83559033 89.19218744 7.54474144 91.61132461 5.16015625 94 C4.52207031 94.6496875 3.88398437 95.299375 3.2265625 95.96875 C-8.2290313 106.82893872 -24.24662509 111.38907383 -39.74609375 111.21875 C-57.31942084 109.97619152 -71.91147797 102.92786144 -84 90.171875 C-95.34126528 76.78388457 -99.85074228 60.37601062 -98.83984375 43 C-96.73416527 25.86479988 -88.60432436 10.85262172 -75.02734375 0.1875 C-51.83811951 -16.28905407 -23.18942756 -16.33148131 0 0 Z " fill="#F9A529" transform="translate(106.83984375,205)"/>
<path d="M0 0 C6.19457208 5.22303022 10.54819764 12.95349674 15 19.625 C15.74745415 20.73607606 16.49551232 21.84674598 17.24414062 22.95703125 C18.76781488 25.21761245 20.28908297 27.47978243 21.80859375 29.74316406 C25.01658796 34.51083817 28.25768255 39.25563381 31.5 44 C32.72548441 45.79672224 33.95074222 47.59359906 35.17578125 49.390625 C35.79404785 50.29748047 36.41231445 51.20433594 37.04931641 52.13867188 C37.69304199 53.08291016 38.33676758 54.02714844 39 55 C40.04486572 56.53237305 40.04486572 56.53237305 41.11083984 58.09570312 C44.73102475 63.40649575 48.34577585 68.72080036 51.94921875 74.04296875 C54.50608609 77.81675707 57.08988943 81.56857711 59.70703125 85.30078125 C60.80468776 86.88802065 61.90234403 88.47526022 63 90.0625 C63.49846436 90.75762695 63.99692871 91.45275391 64.51049805 92.16894531 C67.71063293 96.83888628 68.82633318 100.31091443 69 106 C67.49214371 110.20612545 65.85412986 112.7116104 62 115 C58.46173745 116.17942085 55.65851274 116.11289189 51.92578125 116.09765625 C50.90003242 116.09553383 50.90003242 116.09553383 49.8535614 116.09336853 C47.67316278 116.08777876 45.49286749 116.07522822 43.3125 116.0625 C41.83268378 116.05748367 40.35286594 116.052921 38.87304688 116.04882812 C35.24866443 116.03781271 31.6243423 116.02055512 28 116 C28.00113916 116.92972514 28.00113916 116.92972514 28.00230134 117.8782326 C28.0470459 154.60388101 28.08136726 191.3295254 28.10213066 228.05519549 C28.10463211 232.46371761 28.10722075 236.87223968 28.10986328 241.28076172 C28.1103879 242.1584286 28.11091252 243.03609548 28.11145304 243.94035833 C28.12015848 258.15620519 28.13592922 272.3720359 28.15430559 286.58787318 C28.17300077 301.17184118 28.18411592 315.75580072 28.18817699 330.33978021 C28.19092284 339.34072698 28.19959917 348.34162809 28.21583293 357.34256081 C28.22639509 363.51268241 28.22960237 369.68278037 28.22700275 375.85291035 C28.22572027 379.41410359 28.22770282 382.97521695 28.23841095 386.53639603 C28.24993369 390.396659 28.24598028 394.25681764 28.24050903 398.11709595 C28.24924756 399.80678857 28.24924756 399.80678857 28.25816262 401.5306164 C28.2323089 408.25725274 28.13451654 413.47228304 23.625 418.8125 C19.93460468 421.88782943 17.02970072 422.12138831 12.32666016 422.16113281 C11.40535309 422.17074036 10.48404602 422.1803479 9.53482056 422.19024658 C8.5462204 422.19449646 7.55762024 422.19874634 6.5390625 422.203125 C5.51573822 422.20882507 4.49241394 422.21452515 3.43807983 422.22039795 C1.27448558 422.22983723 -0.88912297 422.23637767 -3.05273438 422.24023438 C-6.35572454 422.24994334 -9.65809321 422.28097867 -12.9609375 422.3125 C-15.06510048 422.31903013 -17.1692679 422.32428056 -19.2734375 422.328125 C-20.2579892 422.3404718 -21.24254089 422.3528186 -22.25692749 422.36553955 C-27.60136567 422.3482487 -31.38869458 422.02135902 -36 419 C-39.72494745 415.01815962 -40.12529718 411.20014547 -40.12304783 405.90068436 C-40.12503888 404.86511847 -40.12702993 403.82955258 -40.12908131 402.76260591 C-40.12471205 401.05833833 -40.12471205 401.05833833 -40.12025452 399.31964111 C-40.12110894 398.11157547 -40.12196337 396.90350982 -40.12284368 395.65883613 C-40.12420747 392.30438754 -40.1210766 388.94999711 -40.11606562 385.59555554 C-40.11175162 381.97868682 -40.11320822 378.36181992 -40.1139679 374.74494934 C-40.11449253 368.47805606 -40.11135206 362.21117319 -40.10573006 355.94428253 C-40.09760684 346.88338442 -40.09499899 337.82249134 -40.09374207 328.76158997 C-40.09155284 314.06127197 -40.08489626 299.36095952 -40.07543945 284.66064453 C-40.06626199 270.37972033 -40.05918279 256.09879764 -40.05493164 241.81787109 C-40.05466892 240.93775829 -40.05440619 240.05764549 -40.05413551 239.1508626 C-40.05283048 234.73564413 -40.05156677 230.32042565 -40.05032361 225.90520716 C-40.03995503 189.27013419 -40.02234022 152.63506753 -40 116 C-41.3614917 116.02356567 -41.3614917 116.02356567 -42.75048828 116.04760742 C-46.13873072 116.0989313 -49.52655619 116.13644416 -52.91503906 116.16479492 C-54.37767075 116.17982196 -55.84025782 116.20024955 -57.30273438 116.22631836 C-59.4128728 116.26297267 -61.52241226 116.27978676 -63.6328125 116.29296875 C-64.90012207 116.3086792 -66.16743164 116.32438965 -67.47314453 116.34057617 C-72.03134712 115.90040639 -75.29484445 114.41116321 -78.8125 111.5 C-81.59401884 107.98650252 -81.4738572 104.26471482 -81 100 C-77.41833441 92.87207631 -72.58324969 86.30556695 -68.0625 79.75 C-66.73039284 77.80734372 -65.39836379 75.86463387 -64.06640625 73.921875 C-63.39109863 72.93896484 -62.71579102 71.95605469 -62.02001953 70.94335938 C-58.83548849 66.30319667 -55.66827048 61.65127296 -52.5 57 C-51.25269009 55.17051434 -50.00529402 53.34108741 -48.7578125 51.51171875 C-45.5948606 46.87277758 -42.43267998 42.23331134 -39.27099609 37.59350586 C-38.01686014 35.7539665 -36.76198896 33.91492817 -35.50634766 32.07641602 C-32.43824918 27.58358297 -29.38040019 23.08447259 -26.34375 18.5703125 C-25.46710693 17.27323364 -25.46710693 17.27323364 -24.57275391 15.94995117 C-23.47682304 14.32811847 -22.38504052 12.70347121 -21.29833984 11.07543945 C-15.61106141 2.68210225 -10.70447326 -3.21776466 0 0 Z M-7 10 C-8.28621834 11.41448672 -8.28621834 11.41448672 -9.5390625 13.296875 C-10.03792969 14.00972656 -10.53679687 14.72257812 -11.05078125 15.45703125 C-11.57027344 16.21371094 -12.08976562 16.97039062 -12.625 17.75 C-13.12128906 18.46027344 -13.61757813 19.17054687 -14.12890625 19.90234375 C-17.80751352 25.19092672 -21.37572764 30.55157576 -24.94238281 35.91601562 C-28.28375899 40.92411527 -31.67312081 45.89931484 -35.0625 50.875 C-35.7942041 51.94999756 -36.5259082 53.02499512 -37.27978516 54.13256836 C-38.78557149 56.34467274 -40.29176493 58.55649903 -41.79833984 60.76806641 C-43.2207696 62.85612641 -44.64298524 64.9443323 -46.06494141 67.03271484 C-47.37228337 68.95274277 -48.67989353 70.87258811 -49.98779297 72.79223633 C-51.23362466 74.62101411 -52.4787563 76.45026901 -53.72314453 78.2800293 C-56.58229036 82.47898866 -59.4572056 86.66458567 -62.37890625 90.8203125 C-63.15741943 91.93297485 -63.15741943 91.93297485 -63.95166016 93.06811523 C-64.91277853 94.43904337 -65.87954201 95.8060386 -66.85302734 97.16821289 C-69.41669965 100.73124894 -69.41669965 100.73124894 -70 105 C-69.02651611 105.01458252 -68.05303223 105.02916504 -67.05004883 105.04418945 C-63.42484524 105.10233296 -59.8002524 105.17956377 -56.17553711 105.26245117 C-54.60923199 105.29562532 -53.04280949 105.32368058 -51.47631836 105.34643555 C-49.21938237 105.38012116 -46.96351474 105.43244049 -44.70703125 105.48828125 C-44.01100296 105.49467117 -43.31497467 105.5010611 -42.59785461 105.50764465 C-38.25018407 105.63797564 -35.45562336 106.330837 -32 109 C-29.81375617 112.27936575 -29.74838317 113.21978997 -29.74108028 117.02032661 C-29.73423149 118.06373494 -29.7273827 119.10714327 -29.72032636 120.18217003 C-29.72294322 121.33225198 -29.72556007 122.48233393 -29.72825623 123.66726685 C-29.72316939 124.88602316 -29.71808255 126.10477947 -29.71284157 127.36046779 C-29.70068659 130.74949267 -29.69748583 134.13831594 -29.69798481 137.52734876 C-29.69635048 141.1797213 -29.68322983 144.83205415 -29.67144775 148.48440552 C-29.65256373 154.81460547 -29.64086582 161.14478609 -29.63390923 167.47500992 C-29.62375258 176.62859191 -29.6016988 185.7821153 -29.57652331 194.9356669 C-29.53590746 209.78733987 -29.50345221 224.63901843 -29.47680664 239.49072266 C-29.47520934 240.37996704 -29.47361204 241.26921143 -29.47196633 242.18540262 C-29.47036743 243.07578419 -29.46876853 243.96616576 -29.46712118 244.88352859 C-29.44442487 257.51236361 -29.41979419 270.14119288 -29.39282227 282.77001953 C-29.38997805 284.10317619 -29.38997805 284.10317619 -29.38707637 285.46326531 C-29.3553428 300.26088604 -29.31959677 315.05849551 -29.28178078 329.85610187 C-29.25869551 338.99159259 -29.23975766 348.12707558 -29.22611404 357.26258539 C-29.21661367 363.51627722 -29.20378822 369.76995613 -29.18830519 376.023636 C-29.17950659 379.63685817 -29.17242392 383.25006427 -29.16966438 386.86329651 C-29.16666215 390.77111678 -29.15609759 394.67889496 -29.14476013 398.58670044 C-29.14533933 400.31851553 -29.14533933 400.31851553 -29.14593023 402.08531678 C-29.14168918 403.12350961 -29.13744814 404.16170244 -29.13307858 405.23135567 C-29.13150468 406.134603 -29.12993078 407.03785033 -29.12830919 407.96846879 C-29.22503822 409.99533825 -29.22503822 409.99533825 -28 411 C-26.62390118 411.09795311 -25.24286118 411.12798088 -23.86328125 411.12939453 C-22.98567139 411.13254669 -22.10806152 411.13569885 -21.20385742 411.13894653 C-20.24970947 411.1369223 -19.29556152 411.13489807 -18.3125 411.1328125 C-16.85324097 411.13424759 -16.85324097 411.13424759 -15.36450195 411.13571167 C-13.303222 411.13639358 -11.24193992 411.13453853 -9.18066406 411.13037109 C-6.01362312 411.125023 -2.846724 411.13031572 0.3203125 411.13671875 C2.31770865 411.13605797 4.31510471 411.13477681 6.3125 411.1328125 C7.26664795 411.13483673 8.2207959 411.13686096 9.20385742 411.13894653 C10.08146729 411.13579437 10.95907715 411.13264221 11.86328125 411.12939453 C12.63969971 411.12859894 13.41611816 411.12780334 14.21606445 411.12698364 C16.02433662 411.19403542 16.02433662 411.19403542 17 410 C17.09843528 408.41479874 17.12662975 406.82519662 17.12749195 405.23694229 C17.13200342 403.68150314 17.13200342 403.68150314 17.13660604 402.09464097 C17.13485567 400.94146182 17.13310529 399.78828267 17.13130188 398.60015869 C17.13447545 396.77882089 17.13447545 396.77882089 17.13771313 394.92068839 C17.14164825 392.2438384 17.14372818 389.56705896 17.14274788 386.89021301 C17.14116014 382.53562505 17.14634638 378.1810602 17.15237427 373.82647705 C17.16049966 367.50388852 17.16543538 361.18130404 17.16866493 354.85871124 C17.17415299 344.86817214 17.19104195 334.87766735 17.21000671 324.887146 C17.21636399 321.47169882 17.22267236 318.05625155 17.22898388 314.64080429 C17.23056764 313.78715832 17.2321514 312.93351234 17.23378316 312.05399831 C17.25173219 302.32929561 17.26795228 292.60459048 17.28295898 282.87988281 C17.28502279 281.54589359 17.28502279 281.54589359 17.28712829 280.18495509 C17.30905631 265.77451068 17.31981353 251.36407504 17.32732973 236.95361689 C17.33539641 222.16956934 17.35867327 207.38559725 17.3952834 192.60159278 C17.41733122 183.47694775 17.4269661 174.35245779 17.42078307 165.22778746 C17.41761219 158.97493243 17.42891391 152.72220993 17.45167748 146.46939591 C17.46436524 142.85965001 17.47049141 139.25019931 17.45926094 135.64044189 C17.44724927 131.72937704 17.46597014 127.81880654 17.48774719 123.90777588 C17.47508339 122.19139148 17.47508339 122.19139148 17.46216375 120.44033265 C17.5415339 112.76492188 17.5415339 112.76492188 19.9070158 108.81826401 C23.6377058 105.57725562 26.88819766 105.79171465 31.6328125 105.68359375 C32.38464813 105.66281265 33.13648376 105.64203156 33.91110229 105.62062073 C36.31564085 105.55517295 38.72028967 105.49626262 41.125 105.4375 C42.75391771 105.39431023 44.38282422 105.35069579 46.01171875 105.30664062 C50.00769915 105.19949649 54.00379059 105.09821567 58 105 C57.36557121 101.10180042 55.48869061 98.48237908 53.2734375 95.2578125 C52.89405029 94.70199997 52.51466309 94.14618744 52.1237793 93.5735321 C50.87963755 91.75355235 49.62735593 89.93933486 48.375 88.125 C47.5041518 86.85414898 46.63387754 85.58290448 45.76416016 84.3112793 C44.00718416 81.7440533 42.2471815 79.17894847 40.484375 76.61572266 C37.69917665 72.56485197 34.93023191 68.5030046 32.16357422 64.43945312 C30.36350082 61.79561068 28.56085726 59.15353547 26.7578125 56.51171875 C23.3197333 51.47170323 19.88991489 46.42610319 16.46166992 41.37939453 C14.30327065 38.20338588 12.14204253 35.02931738 9.98046875 31.85546875 C7.4914432 28.19961946 5.01423854 24.53640098 2.55078125 20.86328125 C1.5547109 19.38800503 0.55861896 17.91274339 -0.4375 16.4375 C-1.10120605 15.43710693 -1.10120605 15.43710693 -1.77832031 14.41650391 C-2.80119457 12.90844109 -3.89324585 11.4476258 -5 10 C-5.66 10 -6.32 10 -7 10 Z " fill="#24284F" transform="translate(435,55)"/>
<path d="M0 0 C13.05676973 9.82622877 21.29828688 22.99367595 24.609375 38.93359375 C25.97149504 49.6262361 25.38233954 59.7651284 22 70 C21.73316406 70.84949219 21.46632813 71.69898438 21.19140625 72.57421875 C16.13665582 86.88477885 5.15672278 97.91561081 -8 105 C-23.7394223 111.9713423 -41.29187268 113.92909694 -57.86328125 108.3203125 C-74.48646604 101.32325589 -86.83058782 89.60103379 -93.93359375 72.98046875 C-99.80552712 56.56916778 -99.65044832 39.82458981 -92.43701172 23.8762207 C-84.96231278 8.44299401 -73.00615236 -2.45801347 -56.9375 -8.5 C-37.67169097 -14.91204122 -16.50265094 -11.54496999 0 0 Z M-60 5 C-60.80308594 5.45761719 -61.60617188 5.91523438 -62.43359375 6.38671875 C-73.89538638 13.44161641 -82.18865914 23.79666466 -85.9375 36.8125 C-88.89941281 50.9926576 -87.26238625 64.27577187 -79.8125 76.75 C-71.95762429 88.23148853 -61.65047331 96.65620871 -48 100 C-44.42643986 100.44371307 -40.91105067 100.52461734 -37.3125 100.5 C-36.35005371 100.49500488 -35.38760742 100.49000977 -34.39599609 100.48486328 C-21.03834753 100.16048562 -11.10545105 95.59791883 -1.375 86.5625 C-0.59125 85.716875 0.1925 84.87125 1 84 C1.48210937 83.51144531 1.96421875 83.02289063 2.4609375 82.51953125 C12.01319763 72.31267461 14.54816558 59.15534389 14.3125 45.58984375 C13.12421627 31.93943442 6.66146779 20.70270007 -3.078125 11.33203125 C-8.22910863 7.22088522 -13.92758061 4.53257301 -20 2 C-21.36511719 1.42572266 -21.36511719 1.42572266 -22.7578125 0.83984375 C-34.77916155 -2.27412016 -49.32955143 -1.40903329 -60 5 Z " fill="#262A50" transform="translate(106,362)"/>
<path d="M0 0 C11.82906576 10.87869638 17.41511624 25.04029927 18.97265625 40.76171875 C19.54211733 57.6853902 14.32062372 73.40536038 3.28515625 86.3515625 C-8.27549886 98.42080819 -23.80510218 105.71861762 -40.54199219 106.38110352 C-58.38220024 106.65171341 -74.46199629 100.37249405 -87.40234375 87.9765625 C-99.26184988 74.77374661 -105.05048817 59.16328749 -104.71484375 41.5 C-103.0677267 22.92875523 -95.04781021 8.3872263 -81.265625 -3.93359375 C-56.24725011 -23.77575314 -23.4416936 -19.74438583 0 0 Z M-82.40234375 11.9765625 C-91.64461728 24.80312951 -95.10764414 37.61313465 -92.93359375 53.375 C-90.28865318 66.63119023 -83.49918866 77.85202597 -72.66015625 86.05078125 C-60.49598587 94.08722068 -47.74580024 96.75950678 -33.24609375 94.48046875 C-18.40153716 91.09453252 -7.28409107 83.28573355 1.12890625 70.52734375 C7.98840749 58.61443335 9.68182691 44.54037366 6.76171875 31.140625 C2.15651423 17.13956697 -6.47197813 6.34341635 -19.58984375 -0.3359375 C-41.53075089 -10.83191536 -66.05154252 -6.62112036 -82.40234375 11.9765625 Z " fill="#26284E" transform="translate(112.40234375,52.0234375)"/>
<path d="M0 0 C13.72501777 10.54322352 21.64415148 24.9492292 24.16015625 42 C25.58570885 58.01138952 22.18608596 73.90430363 12.0546875 86.6484375 C9.83559033 89.19218744 7.54474144 91.61132461 5.16015625 94 C4.52207031 94.6496875 3.88398437 95.299375 3.2265625 95.96875 C-8.2290313 106.82893872 -24.24662509 111.38907383 -39.74609375 111.21875 C-57.31942084 109.97619152 -71.91147797 102.92786144 -84 90.171875 C-95.34126528 76.78388457 -99.85074228 60.37601062 -98.83984375 43 C-96.73416527 25.86479988 -88.60432436 10.85262172 -75.02734375 0.1875 C-51.83811951 -16.28905407 -23.18942756 -16.33148131 0 0 Z M-75.21484375 14.99609375 C-80.95315869 22.07242924 -84.78352306 29.12618534 -86.83984375 38 C-87.02160156 38.61101562 -87.20335937 39.22203125 -87.390625 39.8515625 C-90.1631482 53.11145607 -86.73860259 66.53250506 -79.45703125 77.7265625 C-71.3681287 89.09791826 -59.7774804 97.32737075 -45.83984375 100 C-29.60620784 101.12656631 -15.7628769 97.64060831 -2.74609375 87.34375 C6.68581917 78.5737257 13.178258 65.15881209 13.70336914 52.32836914 C13.83136126 36.87696576 8.99093131 24.04032673 -1.65234375 12.6875 C-13.0479484 1.93110721 -26.29251529 -1.56881679 -41.66796875 -1.2734375 C-54.48598384 -0.68011966 -66.52430613 5.65794396 -75.21484375 14.99609375 Z " fill="#26294E" transform="translate(106.83984375,205)"/>
<path d="M0 0 C1.18920689 -0.00935994 1.18920689 -0.00935994 2.40243816 -0.01890898 C5.06196929 -0.03487814 7.72058885 -0.02221975 10.38012695 -0.00964355 C12.28553808 -0.01506294 14.19094502 -0.02218456 16.09634399 -0.03088379 C21.27400074 -0.04914188 26.4513392 -0.04203932 31.62900162 -0.02936745 C37.04304117 -0.01925267 42.45705315 -0.02862889 47.87109375 -0.03491211 C56.96367291 -0.04219295 66.05612219 -0.03258932 75.14868164 -0.0135498 C85.66656878 0.00821973 96.18414579 0.00116867 106.70202541 -0.02085543 C115.72632474 -0.03899695 124.7505306 -0.04157384 133.77484226 -0.03110075 C139.1673599 -0.02485897 144.55973168 -0.02404902 149.95223999 -0.0372467 C155.02156494 -0.0487864 160.09048937 -0.04081382 165.15977097 -0.01766968 C167.02220367 -0.01237253 168.88466997 -0.01391349 170.74708939 -0.02272034 C173.28578952 -0.03361992 175.82319896 -0.01998081 178.36181641 0 C179.47251259 -0.01338433 179.47251259 -0.01338433 180.60564709 -0.02703905 C184.02500661 0.02531461 185.88520171 0.28972958 188.66960144 2.34436798 C190.1809082 4.50793457 190.1809082 4.50793457 190.1809082 7.63293457 C189.1809082 10.50793457 189.1809082 10.50793457 187.60235596 11.67174911 C184.22293085 12.83874771 180.96976442 12.78340901 177.43774414 12.76190186 C176.65310665 12.76502184 175.86846916 12.76814182 175.06005478 12.77135634 C172.42838805 12.77933966 169.79695169 12.77301142 167.1652832 12.76672363 C165.27958033 12.76943335 163.39387851 12.77299417 161.50817871 12.77734375 C156.38431714 12.78647234 151.26053598 12.78292154 146.13667297 12.77658558 C140.77869446 12.77152804 135.42072292 12.77621635 130.06274414 12.77935791 C121.06435915 12.78299827 112.06600697 12.77819662 103.06762695 12.76867676 C92.6588821 12.75779208 82.25021558 12.76131761 71.84147263 12.77232957 C62.910611 12.78140045 53.97977298 12.78268869 45.04890823 12.77745223 C39.71232061 12.77433144 34.37576984 12.7739262 29.03918457 12.78052521 C24.02249985 12.78629513 19.00591632 12.78230823 13.98924255 12.77073669 C12.14615548 12.76808822 10.30305991 12.76885839 8.4599762 12.77326202 C5.94789257 12.7787115 3.43613501 12.77189066 0.92407227 12.76190186 C-0.17495108 12.76859402 -0.17495108 12.76859402 -1.29617691 12.77542138 C-4.91958978 12.74739583 -7.83804781 12.70576005 -10.8190918 10.50793457 C-11.8190918 7.63293457 -11.8190918 7.63293457 -11.8190918 4.50793457 C-8.63995885 -0.04326972 -5.16481469 -0.06223807 0 0 Z " fill="#24294E" transform="translate(164.819091796875,53.4920654296875)"/>
<path d="M0 0 C0.79603372 -0.00538554 1.59206744 -0.01077108 2.4122234 -0.01631981 C5.08853436 -0.0306656 7.76435532 -0.02347949 10.44068909 -0.01637268 C12.35580342 -0.0220728 14.27091436 -0.02903566 16.1860199 -0.03717041 C21.39467114 -0.05515669 26.60315442 -0.05392316 31.81182742 -0.04822803 C36.15596712 -0.04514401 40.50007419 -0.05121984 44.84420925 -0.05726677 C55.0904266 -0.0713284 65.33656059 -0.06973714 75.58277893 -0.05836487 C86.162551 -0.04688205 96.74206962 -0.06095841 107.32180828 -0.08776134 C116.3970336 -0.10989413 125.47217922 -0.11656119 134.54742962 -0.11068493 C139.97127127 -0.10730834 145.39495043 -0.10977689 150.81876945 -0.12693596 C155.91843239 -0.14236443 161.01771895 -0.13849519 166.11736679 -0.11963081 C167.99109257 -0.11593353 169.86484598 -0.1190864 171.73854637 -0.1295166 C174.29260727 -0.1426507 176.84540817 -0.1312473 179.39941406 -0.11352539 C180.14445126 -0.1231304 180.88948845 -0.1327354 181.65710253 -0.14263147 C185.08721235 -0.09351379 186.96552214 0.1698092 189.76640415 2.21978664 C191.26319885 4.38768005 191.26319885 4.38768005 191.07569885 7.57518005 C190.26319885 10.38768005 190.26319885 10.38768005 189.26319885 11.38768005 C186.7132789 11.49209175 184.19020595 11.53100669 181.63955688 11.52812195 C180.83157022 11.53109307 180.02358356 11.53406419 179.19111246 11.53712535 C176.46260821 11.5458509 173.73414763 11.54732382 171.00563049 11.54881287 C169.05801295 11.55343827 167.11039632 11.55846255 165.16278076 11.56385803 C159.85709012 11.57700969 154.55141215 11.58343221 149.24570775 11.58786869 C145.93519051 11.59079459 142.62467678 11.59489843 139.3141613 11.59937286 C128.9686173 11.61305425 118.62308125 11.62271812 108.27752882 11.62657475 C96.31199177 11.63105911 84.34656875 11.64862183 72.38106638 11.67757535 C63.14711872 11.6991481 53.91320324 11.70927665 44.67923063 11.71061587 C39.1570714 11.71166695 33.63501926 11.71763884 28.11288643 11.73543549 C22.92140254 11.75184048 17.73010711 11.75410877 12.53860664 11.74529648 C10.62856036 11.74452206 8.71850425 11.74892167 6.80848312 11.75875473 C4.21003488 11.77135197 1.61226661 11.76566489 -0.98617554 11.75517273 C-1.7500755 11.76322913 -2.51397546 11.77128554 -3.3010239 11.77958608 C-5.40125942 11.75961685 -5.40125942 11.75961685 -8.73680115 11.38768005 C-10.89182646 8.15514209 -11.20536249 7.13617082 -10.73680115 3.38768005 C-8.18858821 -0.62661534 -4.27955702 -0.03441916 0 0 Z " fill="#25284F" transform="translate(163.73680114746094,213.61231994628906)"/>
<path d="M0 0 C1.20123426 -0.00807831 1.20123426 -0.00807831 2.42673588 -0.01631981 C5.11919941 -0.03066591 7.8111759 -0.02347944 10.50366211 -0.01637268 C12.43025103 -0.02207274 14.35683657 -0.02903558 16.28341675 -0.03717041 C21.5229913 -0.05515617 26.76239889 -0.0539234 32.00199509 -0.04822803 C36.37108226 -0.04514432 40.74013698 -0.05121941 45.10921955 -0.05726677 C55.41292822 -0.07132787 65.71655401 -0.06973723 76.02026367 -0.05836487 C86.66253913 -0.04687865 97.30456273 -0.06096424 107.946805 -0.08776134 C117.07381883 -0.10988561 126.20075341 -0.11656322 135.32779217 -0.11068493 C140.78345963 -0.10730671 146.23896559 -0.10978777 151.6946106 -0.12693596 C156.82299694 -0.1423512 161.95100878 -0.13851007 167.07938004 -0.11963081 C168.96481375 -0.11593001 170.85027489 -0.11909651 172.73568344 -0.1295166 C175.30323072 -0.14262666 177.86951977 -0.13126904 180.43701172 -0.11352539 C181.1888527 -0.1231304 181.94069368 -0.1327354 182.71531773 -0.14263147 C186.00896727 -0.09557031 187.75891781 -0.04182195 190.21656799 2.25494289 C191.53644335 5.06444567 191.21075582 6.48725708 190.21850586 9.38768005 C187.72425747 11.88192844 186.2480835 11.6308443 182.84439903 11.65982896 C182.08964521 11.65604964 181.33489139 11.65227031 180.55726624 11.64837646 C179.75729782 11.65220201 178.95732941 11.65602756 178.13311952 11.65996903 C175.4376389 11.67033368 172.74236993 11.66630037 170.046875 11.66233826 C168.1204356 11.66668282 166.19399794 11.67186511 164.26756287 11.67782593 C159.02382609 11.69125473 153.7801612 11.69179029 148.53641057 11.68926263 C144.16489465 11.68819553 139.79339344 11.69306956 135.42188066 11.69786805 C125.11197183 11.70897668 114.80209943 11.70939304 104.4921875 11.70335388 C93.84259191 11.69731184 83.19312837 11.70962789 72.54355532 11.73092395 C63.41232491 11.74851494 54.28113663 11.75454527 45.14988989 11.75128621 C39.6908789 11.74946919 34.23196209 11.75215102 28.77296638 11.76600075 C23.64054934 11.77853383 18.50833877 11.77667802 13.37592506 11.76358986 C11.48887819 11.76121463 9.60181699 11.7639924 7.71478653 11.77221298 C5.1451911 11.78260251 2.57629852 11.77464315 0.00672913 11.76190186 C-0.74579398 11.76927614 -1.49831708 11.77665043 -2.27364391 11.78424817 C-7.28746555 11.73169094 -7.28746555 11.73169094 -9.74482059 10.02054119 C-11.24200674 7.66232815 -11.19171647 6.1224956 -10.78149414 3.38768005 C-8.2239475 -0.63699542 -4.29126411 -0.03430339 0 0 Z " fill="#25284F" transform="translate(163.781494140625,373.61231994628906)"/>
<path d="M0 0 C1.87807846 -0.01062721 1.87807846 -0.01062721 3.7940979 -0.02146912 C5.1841892 -0.01917522 6.57428016 -0.01666551 7.96437073 -0.01396179 C9.42628744 -0.01830832 10.88820188 -0.02349127 12.35011292 -0.02944946 C16.32324323 -0.04285721 20.29627853 -0.04341617 24.26942706 -0.04088616 C27.58463626 -0.03981764 30.89982614 -0.04469677 34.21503121 -0.04949158 C42.03530096 -0.06059293 49.85552268 -0.06102067 57.67579651 -0.05497742 C65.74708854 -0.04893615 73.81820631 -0.06125102 81.88946861 -0.08254749 C88.81608488 -0.10015265 95.74264563 -0.10616656 102.66928345 -0.10290974 C106.80761041 -0.10109499 110.94581306 -0.10375212 115.0841198 -0.11762428 C118.97556232 -0.13018042 122.86673284 -0.12827973 126.75817108 -0.11521339 C128.18683272 -0.1128432 129.61551336 -0.11559816 131.04415321 -0.12383652 C132.99344055 -0.13426715 134.94280506 -0.12442124 136.89208984 -0.11352539 C137.98328345 -0.11369313 139.07447706 -0.11386087 140.19873714 -0.1140337 C143.37837931 0.30986976 144.7639945 0.99445214 147.00953674 3.26069641 C147.50953674 6.26069641 147.50953674 6.26069641 147.00953674 9.26069641 C144.76573085 11.52346657 143.37644586 12.21100219 140.20153046 12.64101315 C138.56668827 12.64465799 138.56668827 12.64465799 136.89881897 12.64837646 C135.01867851 12.66323341 135.01867851 12.66323341 133.10055542 12.6783905 C131.71409509 12.67415251 130.32763571 12.66959466 128.94117737 12.66474915 C127.47911049 12.67045219 126.01704807 12.67741619 124.55499268 12.68554688 C120.58601515 12.7034996 116.61725844 12.70230614 112.64825249 12.69660449 C109.33547002 12.69351608 106.02273019 12.69960111 102.70995378 12.70564324 C94.89587902 12.71969341 87.08191357 12.71812274 79.26783752 12.70674133 C71.20385171 12.69525556 63.14019829 12.70934222 55.07625628 12.73613781 C48.15385357 12.75827974 41.23155532 12.76493573 34.3091197 12.7590614 C30.17412831 12.75568746 26.03935008 12.75813579 21.90438843 12.77531242 C18.0169576 12.79075597 14.13002017 12.78685538 10.24260902 12.76800728 C8.815561 12.76431434 7.38847662 12.76745044 5.96146202 12.77789307 C4.01443004 12.79105396 2.06727106 12.77717776 0.12025452 12.76190186 C-0.96964027 12.76169257 -2.05953506 12.76148329 -3.18245697 12.76126766 C-6.67500764 12.13866562 -7.88901005 11.07793797 -9.99046326 8.26069641 C-9.92796326 5.13569641 -9.92796326 5.13569641 -8.99046326 2.26069641 C-5.49780548 -0.0677421 -4.12692825 0.0077667 0 0 Z " fill="#24284F" transform="translate(162.99046325683594,282.7393035888672)"/>
<path d="M0 0 C1.89492943 -0.01268921 1.89492943 -0.01268921 3.82814026 -0.02563477 C5.225633 -0.01980205 6.62312448 -0.01365756 8.02061462 -0.00723267 C9.49415476 -0.01129828 10.96769184 -0.0166401 12.44122314 -0.02316284 C16.44113614 -0.03684243 20.44081708 -0.03153553 24.44073415 -0.02202559 C28.62471091 -0.01443372 32.80866772 -0.02147315 36.99264526 -0.02618408 C44.01795523 -0.03164241 51.04317058 -0.02444737 58.06846619 -0.01016235 C66.19490765 0.00617069 74.3211234 0.00087128 82.44755942 -0.01564157 C89.42174656 -0.02924667 96.39586569 -0.03118108 103.37006181 -0.02332556 C107.53683609 -0.01864447 111.70350419 -0.01803623 115.87027168 -0.02793503 C119.78636327 -0.0365885 123.70216318 -0.03061273 127.61822319 -0.01325226 C129.0569752 -0.00927898 130.49575168 -0.01043583 131.93449402 -0.01704025 C133.89504125 -0.02521162 135.855642 -0.0131578 137.81616211 0 C139.4634485 0.00169662 139.4634485 0.00169662 141.1440134 0.00342751 C143.84458923 0.38095093 143.84458923 0.38095093 145.70183468 1.71335411 C147.45898335 4.27752288 147.16553107 6.36409766 146.84458923 9.38095093 C144.11417343 12.11136673 142.63268482 11.63466286 138.80906677 11.64164734 C137.52184219 11.64873215 136.23461761 11.65581696 134.90838623 11.66311646 C133.47370876 11.66082243 132.03903162 11.6583127 130.60435486 11.65560913 C129.09993231 11.65995423 127.59551199 11.6651367 126.09109497 11.6710968 C121.99820962 11.68451895 117.90541643 11.68506199 113.81251335 11.6825335 C110.40023821 11.6814661 106.9879819 11.68634115 103.57571077 11.69113892 C95.5287667 11.70224494 87.4818693 11.70266518 79.43492126 11.69662476 C71.1221965 11.69058098 62.80964082 11.70290366 54.4969449 11.72419482 C47.36910815 11.74178267 40.24132536 11.74781671 33.11346769 11.74455708 C28.85223007 11.74273978 24.59111308 11.74542476 20.32989502 11.75927162 C16.3243866 11.77179993 12.3191428 11.76995371 8.31363869 11.75686073 C6.84059881 11.75448454 5.36754059 11.7572667 3.89452171 11.76548386 C1.8897423 11.77586411 -0.11511178 11.76609711 -2.11988831 11.75517273 C-3.24372169 11.75534047 -4.36755508 11.75550821 -5.52544403 11.75568104 C-6.82727757 11.57018963 -6.82727757 11.57018963 -8.15541077 11.38095093 C-10.30303261 8.15951817 -10.71647876 7.12140423 -10.15541077 3.38095093 C-6.94970501 0.18753759 -4.42085021 0.00455167 0 0 Z " fill="#24294E" transform="translate(163.15541076660156,442.6190490722656)"/>
<path d="M0 0 C1.28584991 -0.00426498 2.57169983 -0.00852997 3.89651489 -0.01292419 C5.33482364 -0.01257463 6.77313236 -0.01211307 8.21144104 -0.0115509 C9.71571436 -0.01454076 11.2199869 -0.01794288 12.72425842 -0.02172852 C16.82131435 -0.03059035 20.91834942 -0.03290754 25.015414 -0.0335443 C28.43011894 -0.03449159 31.84481897 -0.03816779 35.25952202 -0.0417164 C43.31267072 -0.04986924 51.36580822 -0.05229987 59.41896057 -0.05158997 C67.73901004 -0.05098894 76.05899472 -0.06154381 84.37902778 -0.07733363 C91.51108273 -0.09038887 98.64311645 -0.09577471 105.77518326 -0.09513456 C110.03976564 -0.09487897 114.30429048 -0.09776311 118.56886101 -0.10831261 C122.57840677 -0.11795979 126.58783959 -0.11809617 130.59738922 -0.11079597 C132.07204159 -0.1097459 133.54670086 -0.11213787 135.02134132 -0.11815643 C137.02837367 -0.1258196 139.03544413 -0.12005809 141.04248047 -0.11352539 C142.16761268 -0.11407016 143.29274488 -0.11461493 144.45197201 -0.1151762 C147.08473206 0.13371277 147.08473206 0.13371277 149.08473206 2.13371277 C149.63727369 7.32760415 149.63727369 7.32760415 147.9419775 9.80088902 C145.28295709 11.70909429 143.31235551 11.51418837 140.05630493 11.52139282 C138.16560524 11.53624977 138.16560524 11.53624977 136.23670959 11.55140686 C134.83717249 11.54716858 133.43763633 11.5426107 132.0381012 11.5377655 C130.56632976 11.54346683 129.09456274 11.55043017 127.62280273 11.55856323 C123.62277585 11.57653659 119.62296782 11.57531843 115.62291265 11.56962085 C112.28532717 11.56653487 108.94778409 11.57261487 105.61020464 11.57865959 C97.73717609 11.59271705 89.86425603 11.59113354 81.9912262 11.57975769 C73.86534608 11.56827604 65.73979599 11.58235001 57.61395937 11.60915416 C50.640622 11.63129657 43.66738834 11.63795183 36.6940183 11.63207775 C32.52771349 11.62870335 28.36162023 11.63115506 24.19534492 11.64832878 C20.27755997 11.66377267 16.36026459 11.65987132 12.44249916 11.64102364 C11.00416407 11.63733054 9.56579292 11.64046725 8.127491 11.65090942 C6.16507849 11.66406951 4.20253999 11.65019463 2.24014282 11.63491821 C1.14157487 11.63470893 0.04300692 11.63449965 -1.08885098 11.63428402 C-4.59490151 11.01334658 -5.81651646 9.9710538 -7.91526794 7.13371277 C-7.51543997 0.33663727 -6.4452027 0.00960312 0 0 Z " fill="#25284E" transform="translate(160.91526794433594,123.86628723144531)"/>
<path d="M0 0 C3.678976 2.00474392 7.19596037 4.07328469 10.65234375 6.4453125 C7.65234375 7.4453125 7.65234375 7.4453125 4.65234375 6.4453125 C-7.93542889 5.36417091 -20.09878377 5.19769188 -31.34765625 11.4453125 C-32.31832031 11.97640625 -33.28898437 12.5075 -34.2890625 13.0546875 C-46.96567165 20.57441755 -55.51870157 31.21602465 -59.83984375 45.41015625 C-61.08389442 50.39592854 -61.50649119 55.05723517 -61.47265625 60.1953125 C-61.46975586 61.25395508 -61.46975586 61.25395508 -61.46679688 62.33398438 C-61.42456131 67.44448726 -61.06977433 72.39048593 -60.34765625 77.4453125 C-68.97263495 67.58819399 -71.94941004 56.09511332 -71.625 43.18359375 C-70.57994725 29.09746019 -64.58381327 17.52554969 -54.37890625 7.77734375 C-38.97743503 -4.07146851 -18.07208416 -8.31173384 0 0 Z " fill="#B6C7D7" transform="translate(90.34765625,365.5546875)"/>
<path d="M0 0 C0.78375 0.5775 1.5675 1.155 2.375 1.75 C-1.14703722 2.88208339 -1.14703722 2.88208339 -3.29296875 2.2890625 C-17.31165953 -0.95143889 -32.80104863 2.51595943 -44.93359375 9.66113281 C-58.01453692 18.08217879 -65.37950302 30.33244635 -69.25390625 45.15625 C-69.74770887 48.6076704 -69.77290428 52.02182204 -69.75 55.5 C-69.74709961 56.55864258 -69.74709961 56.55864258 -69.74414062 57.63867188 C-69.70190506 62.74917476 -69.34711808 67.69517343 -68.625 72.75 C-72.3197586 69.53612105 -73.9456949 66.30914878 -75.8125 61.8125 C-76.32167969 60.60722656 -76.83085938 59.40195312 -77.35546875 58.16015625 C-82.18946151 45.17530801 -80.04964918 31.14473061 -74.5625 18.75 C-68.0412375 6.50559966 -57.39207261 -2.08142974 -44.4375 -6.6875 C-29.57210201 -10.82071925 -12.93314544 -8.60176183 0 0 Z " fill="#DE9425" transform="translate(98.625,212.25)"/>
<path d="M0 0 C2.35546875 2.1640625 2.35546875 2.1640625 4 4 C3.01 3.835 2.02 3.67 1 3.5 C-17.02706816 1.3265237 -32.24617926 3.99605679 -47.3515625 14.66015625 C-58.03689812 23.38582607 -64.85896555 36.31630637 -66.7265625 49.8828125 C-67.43765783 57.98929922 -67.2605225 65.96416906 -66 74 C-73.94937031 66.72717184 -76.45806936 56.07844794 -77.25390625 45.68359375 C-77.72914066 31.71783405 -73.03413047 19.07855413 -63.81640625 8.4921875 C-45.90271065 -8.86262433 -21.77229801 -11.40603745 0 0 Z " fill="#C01756" transform="translate(96,53)"/>
</svg>
